<?xml version="1.0" encoding="UTF-8" standalone="no"?>
<!DOCTYPE svg PUBLIC "-//W3C//DTD SVG 1.1//EN" "http://www.w3.org/Graphics/SVG/1.1/DTD/svg11.dtd">
<svg width="100%" height="100%" viewBox="0 0 117 89" version="1.1" xmlns="http://www.w3.org/2000/svg" xmlns:xlink="http://www.w3.org/1999/xlink" xml:space="preserve" xmlns:serif="http://www.serif.com/" style="fill-rule:evenodd;clip-rule:evenodd;stroke-linejoin:round;stroke-miterlimit:2;">
    <g transform="matrix(1,0,0,1,-44.6366,-299.969)">
        <g id="Artboard3" transform="matrix(0.5553,0,0,0.433744,44.6366,192.551)">
            <rect x="0" y="247.652" width="210.155" height="203.104" style="fill:none;"/>
            <g transform="matrix(8.22457,0,0,10.5295,-6275.44,-3908.23)">
                <g transform="matrix(20,0,0,20,769.847,411.767)">
                    <path d="M0.127,-0.172C0.15,-0.113 0.196,-0.078 0.267,-0.069L0.267,-0.308L0.231,-0.315C0.208,-0.32 0.186,-0.327 0.164,-0.336C0.141,-0.345 0.122,-0.356 0.105,-0.371C0.088,-0.386 0.074,-0.404 0.063,-0.425C0.052,-0.446 0.047,-0.47 0.047,-0.498C0.047,-0.527 0.054,-0.553 0.067,-0.575C0.08,-0.597 0.098,-0.615 0.119,-0.63C0.139,-0.645 0.163,-0.656 0.189,-0.664C0.215,-0.672 0.241,-0.677 0.267,-0.679L0.267,-0.742L0.317,-0.742L0.317,-0.679C0.362,-0.676 0.402,-0.664 0.439,-0.645C0.476,-0.625 0.504,-0.595 0.523,-0.555L0.437,-0.53C0.424,-0.551 0.406,-0.567 0.385,-0.578C0.363,-0.589 0.34,-0.596 0.317,-0.599L0.317,-0.386L0.329,-0.383C0.354,-0.376 0.38,-0.369 0.407,-0.361C0.434,-0.352 0.458,-0.341 0.48,-0.327C0.501,-0.312 0.519,-0.294 0.533,-0.272C0.547,-0.25 0.554,-0.222 0.554,-0.188C0.554,-0.157 0.548,-0.129 0.535,-0.105C0.522,-0.081 0.504,-0.061 0.483,-0.044C0.461,-0.027 0.436,-0.013 0.407,-0.004C0.378,0.005 0.348,0.011 0.317,0.012L0.317,0.087L0.267,0.087L0.267,0.011C0.209,0.006 0.161,-0.011 0.123,-0.038C0.084,-0.065 0.057,-0.101 0.04,-0.146L0.127,-0.172ZM0.317,-0.068C0.362,-0.071 0.396,-0.082 0.421,-0.103C0.445,-0.123 0.457,-0.149 0.457,-0.18C0.457,-0.197 0.454,-0.212 0.447,-0.225C0.44,-0.238 0.43,-0.249 0.418,-0.258C0.405,-0.267 0.391,-0.274 0.374,-0.281C0.357,-0.287 0.338,-0.292 0.317,-0.297L0.317,-0.068ZM0.252,-0.401L0.267,-0.398L0.267,-0.6C0.254,-0.599 0.241,-0.596 0.226,-0.592C0.211,-0.588 0.198,-0.582 0.186,-0.575C0.173,-0.567 0.163,-0.557 0.155,-0.546C0.147,-0.534 0.143,-0.52 0.143,-0.503C0.143,-0.473 0.153,-0.45 0.174,-0.434C0.195,-0.418 0.221,-0.407 0.252,-0.401Z" style="fill-rule:nonzero;"/>
                </g>
            </g>
        </g>
    </g>
</svg>
