<?xml version="1.0" encoding="UTF-8" standalone="no"?>
<!DOCTYPE svg PUBLIC "-//W3C//DTD SVG 1.1//EN" "http://www.w3.org/Graphics/SVG/1.1/DTD/svg11.dtd">
<svg width="100%" height="100%" viewBox="0 0 201 77" version="1.1" xmlns="http://www.w3.org/2000/svg" xmlns:xlink="http://www.w3.org/1999/xlink" xml:space="preserve" xmlns:serif="http://www.serif.com/" style="fill-rule:evenodd;clip-rule:evenodd;stroke-linejoin:round;stroke-miterlimit:2;">
    <g transform="matrix(1,0,0,1,0,-89)">
        <g id="Artboard2" transform="matrix(1,0,0,1,389.848,-0.943508)">
            <rect x="-389.848" y="89.944" width="200.295" height="76.287" style="fill:none;"/>
            <g transform="matrix(1.39361,0,0,1.39361,-773.065,-85.7406)">
                <g transform="matrix(2.7481,0,0,2.7481,-412.195,-246.982)">
                    <g transform="matrix(12,0,0,12,249.829,144.921)">
                        <path d="M0.076,-0L0.076,-0.668L0.232,-0.668L0.41,-0.122L0.588,-0.668L0.744,-0.668L0.744,-0L0.65,-0L0.65,-0.57L0.457,-0L0.364,-0L0.17,-0.57L0.17,-0L0.076,-0Z" style="fill-rule:nonzero;"/>
                    </g>
                    <g transform="matrix(12,0,0,12,259.669,144.921)">
                        <path d="M0.373,-0.306C0.374,-0.348 0.366,-0.38 0.348,-0.403C0.33,-0.426 0.301,-0.437 0.261,-0.437C0.231,-0.437 0.206,-0.43 0.188,-0.417C0.169,-0.403 0.156,-0.384 0.151,-0.36L0.07,-0.384C0.083,-0.422 0.107,-0.452 0.142,-0.473C0.176,-0.494 0.215,-0.504 0.26,-0.504C0.329,-0.504 0.379,-0.488 0.41,-0.456C0.441,-0.424 0.456,-0.373 0.457,-0.303L0.458,-0.187C0.459,-0.145 0.46,-0.109 0.464,-0.08C0.467,-0.05 0.47,-0.023 0.475,-0L0.398,-0L0.378,-0.068C0.363,-0.043 0.342,-0.023 0.315,-0.009C0.288,0.005 0.253,0.012 0.209,0.012C0.186,0.012 0.164,0.009 0.143,0.003C0.122,-0.004 0.104,-0.013 0.089,-0.026C0.073,-0.038 0.061,-0.053 0.052,-0.071C0.043,-0.088 0.038,-0.108 0.038,-0.131C0.038,-0.16 0.046,-0.185 0.062,-0.205C0.078,-0.225 0.1,-0.242 0.13,-0.255C0.159,-0.268 0.194,-0.278 0.235,-0.286C0.276,-0.293 0.322,-0.3 0.373,-0.306ZM0.131,-0.133C0.131,-0.11 0.139,-0.091 0.157,-0.077C0.173,-0.062 0.197,-0.055 0.227,-0.055C0.246,-0.055 0.265,-0.057 0.284,-0.063C0.302,-0.068 0.318,-0.076 0.333,-0.088C0.347,-0.099 0.358,-0.115 0.367,-0.135C0.376,-0.154 0.38,-0.179 0.38,-0.208L0.38,-0.239C0.342,-0.235 0.308,-0.231 0.277,-0.226C0.246,-0.221 0.22,-0.214 0.199,-0.206C0.177,-0.198 0.16,-0.188 0.149,-0.177C0.137,-0.165 0.131,-0.15 0.131,-0.133Z" style="fill-rule:nonzero;"/>
                    </g>
                    <g transform="matrix(12,0,0,12,265.981,144.921)">
                        <path d="M0.112,-0.142C0.116,-0.127 0.122,-0.115 0.131,-0.104C0.139,-0.093 0.149,-0.085 0.161,-0.078C0.172,-0.071 0.185,-0.067 0.198,-0.064C0.211,-0.061 0.225,-0.059 0.239,-0.059C0.254,-0.059 0.268,-0.061 0.282,-0.064C0.296,-0.067 0.309,-0.072 0.32,-0.079C0.331,-0.086 0.339,-0.093 0.346,-0.103C0.353,-0.112 0.356,-0.122 0.356,-0.133C0.356,-0.156 0.348,-0.173 0.333,-0.184C0.317,-0.195 0.297,-0.204 0.274,-0.211C0.251,-0.217 0.226,-0.222 0.199,-0.227C0.171,-0.232 0.146,-0.239 0.123,-0.249C0.1,-0.258 0.08,-0.272 0.065,-0.291C0.049,-0.309 0.041,-0.334 0.041,-0.367C0.041,-0.389 0.047,-0.409 0.058,-0.426C0.068,-0.443 0.083,-0.458 0.101,-0.47C0.118,-0.481 0.138,-0.49 0.162,-0.496C0.185,-0.502 0.208,-0.505 0.232,-0.505C0.271,-0.505 0.308,-0.497 0.343,-0.481C0.378,-0.464 0.403,-0.439 0.418,-0.404L0.339,-0.375C0.33,-0.395 0.315,-0.41 0.294,-0.42C0.272,-0.429 0.249,-0.434 0.226,-0.434C0.213,-0.434 0.201,-0.432 0.189,-0.43C0.177,-0.427 0.166,-0.422 0.157,-0.417C0.148,-0.412 0.14,-0.405 0.135,-0.397C0.129,-0.388 0.126,-0.379 0.126,-0.368C0.126,-0.348 0.134,-0.333 0.15,-0.324C0.165,-0.315 0.185,-0.307 0.208,-0.302C0.231,-0.296 0.257,-0.291 0.284,-0.286C0.311,-0.281 0.336,-0.274 0.359,-0.263C0.382,-0.252 0.402,-0.237 0.418,-0.218C0.433,-0.199 0.441,-0.171 0.441,-0.136C0.441,-0.113 0.435,-0.092 0.424,-0.074C0.413,-0.055 0.398,-0.04 0.379,-0.027C0.36,-0.014 0.338,-0.005 0.314,0.002C0.29,0.009 0.265,0.012 0.239,0.012C0.218,0.012 0.196,0.01 0.175,0.005C0.154,-0 0.134,-0.008 0.115,-0.018C0.096,-0.028 0.08,-0.041 0.065,-0.057C0.05,-0.072 0.039,-0.091 0.031,-0.112L0.112,-0.142Z" style="fill-rule:nonzero;"/>
                    </g>
                    <g transform="matrix(12,0,0,12,271.633,144.921)">
                        <path d="M0.104,-0.496L0.104,-0.621L0.188,-0.621L0.188,-0.496L0.284,-0.496L0.284,-0.429L0.188,-0.429L0.188,-0.138C0.188,-0.125 0.188,-0.115 0.189,-0.107C0.19,-0.098 0.192,-0.092 0.196,-0.087C0.199,-0.082 0.204,-0.079 0.211,-0.077C0.218,-0.075 0.227,-0.074 0.239,-0.074L0.284,-0.074L0.284,-0L0.221,-0C0.197,-0 0.178,-0.002 0.163,-0.005C0.148,-0.008 0.136,-0.014 0.127,-0.024C0.118,-0.033 0.112,-0.045 0.109,-0.061C0.106,-0.077 0.104,-0.098 0.104,-0.124L0.104,-0.429L0.02,-0.429L0.02,-0.496L0.104,-0.496Z" style="fill-rule:nonzero;"/>
                    </g>
                    <g transform="matrix(12,0,0,12,275.521,144.921)">
                        <path d="M0.279,-0.504C0.318,-0.504 0.353,-0.496 0.383,-0.481C0.413,-0.465 0.438,-0.444 0.458,-0.418C0.477,-0.392 0.492,-0.362 0.501,-0.329C0.51,-0.295 0.513,-0.26 0.51,-0.225L0.128,-0.225C0.129,-0.194 0.135,-0.167 0.146,-0.147C0.156,-0.126 0.169,-0.109 0.184,-0.097C0.199,-0.084 0.215,-0.075 0.232,-0.07C0.249,-0.065 0.266,-0.062 0.281,-0.062C0.309,-0.062 0.333,-0.066 0.352,-0.075C0.371,-0.084 0.386,-0.096 0.397,-0.111L0.478,-0.087C0.46,-0.058 0.434,-0.034 0.401,-0.016C0.368,0.003 0.328,0.012 0.281,0.012C0.242,0.012 0.208,0.005 0.178,-0.008C0.147,-0.021 0.122,-0.04 0.101,-0.063C0.08,-0.086 0.065,-0.114 0.054,-0.145C0.043,-0.176 0.038,-0.21 0.038,-0.247C0.038,-0.286 0.044,-0.322 0.057,-0.354C0.069,-0.385 0.086,-0.412 0.108,-0.435C0.129,-0.457 0.155,-0.474 0.184,-0.486C0.213,-0.498 0.245,-0.504 0.279,-0.504ZM0.421,-0.292C0.421,-0.309 0.418,-0.327 0.411,-0.344C0.404,-0.361 0.395,-0.376 0.383,-0.389C0.37,-0.402 0.355,-0.412 0.338,-0.42C0.321,-0.428 0.301,-0.432 0.279,-0.432C0.26,-0.432 0.242,-0.429 0.225,-0.424C0.208,-0.419 0.192,-0.411 0.179,-0.4C0.166,-0.389 0.155,-0.374 0.146,-0.357C0.136,-0.339 0.131,-0.317 0.129,-0.292L0.421,-0.292Z" style="fill-rule:nonzero;"/>
                    </g>
                    <g transform="matrix(12,0,0,12,281.989,144.921)">
                        <path d="M0.07,-0.496L0.131,-0.496L0.158,-0.404C0.175,-0.434 0.199,-0.458 0.228,-0.477C0.257,-0.495 0.293,-0.504 0.335,-0.504L0.335,-0.417C0.301,-0.417 0.273,-0.413 0.25,-0.404C0.227,-0.395 0.208,-0.382 0.194,-0.365C0.179,-0.347 0.169,-0.326 0.163,-0.301C0.157,-0.276 0.154,-0.246 0.154,-0.213L0.154,-0L0.07,-0L0.07,-0.496Z" style="fill-rule:nonzero;"/>
                    </g>
                    <g transform="matrix(12,0,0,12,286.069,144.921)">
                        <path d="M0.094,-0.653C0.094,-0.67 0.1,-0.685 0.112,-0.697C0.124,-0.709 0.139,-0.715 0.156,-0.715C0.173,-0.715 0.188,-0.709 0.201,-0.697C0.213,-0.685 0.219,-0.67 0.219,-0.653C0.219,-0.636 0.213,-0.621 0.201,-0.609C0.188,-0.596 0.173,-0.59 0.156,-0.59C0.139,-0.59 0.124,-0.596 0.112,-0.609C0.1,-0.621 0.094,-0.636 0.094,-0.653ZM0.045,-0.496L0.198,-0.496L0.198,-0L0.114,-0L0.114,-0.429L0.045,-0.429L0.045,-0.496Z" style="fill-rule:nonzero;"/>
                    </g>
                    <g transform="matrix(12,0,0,12,289.405,144.921)">
                        <path d="M0.132,-0.496L0.154,-0.421C0.168,-0.444 0.188,-0.464 0.213,-0.48C0.238,-0.496 0.272,-0.504 0.314,-0.504C0.344,-0.504 0.37,-0.499 0.391,-0.49C0.411,-0.481 0.428,-0.468 0.442,-0.451C0.455,-0.434 0.464,-0.414 0.47,-0.391C0.475,-0.368 0.478,-0.342 0.478,-0.314L0.478,-0L0.394,-0L0.394,-0.289C0.394,-0.308 0.393,-0.327 0.391,-0.344C0.388,-0.361 0.383,-0.376 0.376,-0.389C0.368,-0.402 0.357,-0.413 0.343,-0.421C0.328,-0.428 0.309,-0.432 0.285,-0.432C0.244,-0.432 0.212,-0.418 0.189,-0.391C0.166,-0.363 0.154,-0.322 0.154,-0.269L0.154,-0L0.07,-0L0.07,-0.496L0.132,-0.496Z" style="fill-rule:nonzero;"/>
                    </g>
                    <g transform="matrix(12,0,0,12,295.789,144.921)">
                        <path d="M0.248,-0.504C0.288,-0.504 0.321,-0.496 0.346,-0.481C0.371,-0.465 0.391,-0.444 0.406,-0.418L0.429,-0.496L0.49,-0.496L0.49,-0.047C0.49,-0.022 0.489,0.001 0.488,0.024C0.486,0.046 0.481,0.067 0.473,0.086C0.465,0.105 0.453,0.122 0.437,0.137C0.42,0.152 0.398,0.165 0.369,0.176C0.355,0.181 0.34,0.185 0.324,0.188C0.308,0.191 0.291,0.192 0.274,0.192C0.254,0.192 0.234,0.19 0.214,0.186C0.193,0.181 0.174,0.174 0.157,0.165C0.14,0.156 0.124,0.144 0.111,0.129C0.098,0.114 0.088,0.097 0.081,0.076L0.165,0.053C0.17,0.066 0.176,0.077 0.184,0.086C0.192,0.094 0.201,0.1 0.211,0.105C0.221,0.11 0.232,0.113 0.243,0.115C0.254,0.117 0.264,0.118 0.274,0.118C0.287,0.118 0.298,0.117 0.308,0.115C0.318,0.113 0.325,0.111 0.33,0.11C0.345,0.105 0.358,0.098 0.368,0.091C0.377,0.084 0.385,0.075 0.391,0.064C0.396,0.053 0.4,0.04 0.403,0.025C0.405,0.01 0.406,-0.008 0.406,-0.028L0.406,-0.094C0.391,-0.068 0.371,-0.047 0.346,-0.032C0.321,-0.017 0.288,-0.009 0.248,-0.009C0.221,-0.009 0.194,-0.014 0.169,-0.025C0.144,-0.036 0.121,-0.051 0.102,-0.073C0.083,-0.094 0.067,-0.119 0.056,-0.15C0.044,-0.181 0.038,-0.216 0.038,-0.256C0.038,-0.296 0.044,-0.331 0.056,-0.362C0.067,-0.393 0.083,-0.419 0.102,-0.44C0.121,-0.46 0.144,-0.476 0.169,-0.488C0.194,-0.499 0.221,-0.504 0.248,-0.504ZM0.129,-0.256C0.129,-0.199 0.142,-0.156 0.168,-0.125C0.194,-0.094 0.228,-0.079 0.269,-0.079C0.288,-0.079 0.306,-0.082 0.323,-0.089C0.339,-0.096 0.354,-0.106 0.367,-0.121C0.38,-0.135 0.39,-0.153 0.398,-0.176C0.405,-0.198 0.409,-0.225 0.409,-0.256C0.409,-0.287 0.405,-0.314 0.398,-0.337C0.39,-0.359 0.38,-0.377 0.367,-0.391C0.354,-0.405 0.339,-0.415 0.323,-0.422C0.306,-0.429 0.288,-0.432 0.269,-0.432C0.228,-0.432 0.194,-0.417 0.168,-0.387C0.142,-0.356 0.129,-0.313 0.129,-0.256Z" style="fill-rule:nonzero;"/>
                    </g>
                </g>
                <g transform="matrix(6.22791e-17,-1.0171,1.0171,6.22791e-17,110.158,452.659)">
                    <g transform="matrix(12,0,0,12,268.769,171.922)">
                        <path d="M0.01,-0.668L0.548,-0.668L0.548,-0.587L0.326,-0.587L0.326,-0L0.232,-0L0.232,-0.587L0.01,-0.587L0.01,-0.668Z" style="fill-rule:nonzero;"/>
                    </g>
                    <g transform="matrix(12,0,0,12,275.465,171.922)">
                        <path d="M0.076,-0L0.076,-0.668L0.17,-0.668L0.17,-0.384L0.52,-0.384L0.52,-0.668L0.614,-0.668L0.614,-0L0.52,-0L0.52,-0.303L0.17,-0.303L0.17,-0L0.076,-0Z" style="fill-rule:nonzero;"/>
                    </g>
                    <g transform="matrix(12,0,0,12,283.745,171.922)">
                        <path d="M0.076,-0L0.076,-0.668L0.529,-0.668L0.529,-0.587L0.17,-0.587L0.17,-0.384L0.435,-0.384L0.435,-0.303L0.17,-0.303L0.17,-0.081L0.529,-0.081L0.529,-0L0.076,-0Z" style="fill-rule:nonzero;"/>
                    </g>
                </g>
                <g transform="matrix(2.64295,0,0,2.64295,-552.702,-266.585)">
                    <g transform="matrix(12,0,0,12,318.51,168.515)">
                        <path d="M0.076,-0L0.076,-0.668L0.232,-0.668L0.41,-0.122L0.588,-0.668L0.744,-0.668L0.744,-0L0.65,-0L0.65,-0.57L0.457,-0L0.364,-0L0.17,-0.57L0.17,-0L0.076,-0Z" style="fill-rule:nonzero;"/>
                    </g>
                    <g transform="matrix(12,0,0,12,328.35,168.515)">
                        <path d="M0.068,-0.497L0.152,-0.497L0.152,-0.205C0.152,-0.186 0.153,-0.167 0.156,-0.15C0.158,-0.133 0.163,-0.117 0.17,-0.105C0.177,-0.092 0.188,-0.081 0.202,-0.074C0.215,-0.066 0.233,-0.062 0.256,-0.062C0.296,-0.062 0.327,-0.076 0.349,-0.103C0.371,-0.13 0.382,-0.171 0.382,-0.224L0.382,-0.497L0.466,-0.497L0.466,-0L0.403,-0L0.382,-0.072C0.368,-0.048 0.349,-0.028 0.325,-0.012C0.301,0.004 0.268,0.012 0.227,0.012C0.198,0.012 0.174,0.007 0.154,-0.002C0.133,-0.011 0.117,-0.025 0.104,-0.042C0.091,-0.059 0.082,-0.079 0.077,-0.103C0.071,-0.126 0.068,-0.152 0.068,-0.18L0.068,-0.497Z" style="fill-rule:nonzero;"/>
                    </g>
                    <g transform="matrix(12,0,0,12,334.782,168.515)">
                        <path d="M0.132,-0.496L0.154,-0.421C0.168,-0.444 0.188,-0.464 0.213,-0.48C0.238,-0.496 0.272,-0.504 0.314,-0.504C0.344,-0.504 0.37,-0.499 0.391,-0.49C0.411,-0.481 0.428,-0.468 0.442,-0.451C0.455,-0.434 0.464,-0.414 0.47,-0.391C0.475,-0.368 0.478,-0.342 0.478,-0.314L0.478,-0L0.394,-0L0.394,-0.289C0.394,-0.308 0.393,-0.327 0.391,-0.344C0.388,-0.361 0.383,-0.376 0.376,-0.389C0.368,-0.402 0.357,-0.413 0.343,-0.421C0.328,-0.428 0.309,-0.432 0.285,-0.432C0.244,-0.432 0.212,-0.418 0.189,-0.391C0.166,-0.363 0.154,-0.322 0.154,-0.269L0.154,-0L0.07,-0L0.07,-0.496L0.132,-0.496Z" style="fill-rule:nonzero;"/>
                    </g>
                    <g transform="matrix(12,0,0,12,341.202,168.515)">
                        <path d="M0.251,-0.504C0.29,-0.504 0.323,-0.496 0.35,-0.481C0.376,-0.465 0.397,-0.444 0.412,-0.418L0.412,-0.668L0.496,-0.668L0.496,-0.187C0.496,-0.17 0.497,-0.146 0.498,-0.114C0.499,-0.082 0.504,-0.044 0.513,-0L0.434,-0L0.412,-0.075C0.397,-0.048 0.376,-0.027 0.35,-0.012C0.323,0.004 0.29,0.012 0.251,0.012C0.223,0.012 0.196,0.006 0.17,-0.006C0.144,-0.017 0.121,-0.034 0.102,-0.056C0.083,-0.078 0.067,-0.105 0.056,-0.137C0.044,-0.169 0.038,-0.205 0.038,-0.246C0.038,-0.287 0.044,-0.323 0.056,-0.355C0.067,-0.387 0.083,-0.414 0.102,-0.436C0.121,-0.458 0.144,-0.475 0.17,-0.487C0.196,-0.498 0.223,-0.504 0.251,-0.504ZM0.132,-0.246C0.132,-0.187 0.145,-0.141 0.171,-0.109C0.196,-0.076 0.23,-0.06 0.273,-0.06C0.316,-0.06 0.35,-0.076 0.376,-0.109C0.401,-0.141 0.414,-0.187 0.414,-0.246C0.414,-0.305 0.401,-0.351 0.376,-0.384C0.35,-0.416 0.316,-0.432 0.273,-0.432C0.23,-0.432 0.196,-0.416 0.171,-0.384C0.145,-0.351 0.132,-0.305 0.132,-0.246Z" style="fill-rule:nonzero;"/>
                    </g>
                    <g transform="matrix(12,0,0,12,347.97,168.515)">
                        <path d="M0.373,-0.306C0.374,-0.348 0.366,-0.38 0.348,-0.403C0.33,-0.426 0.301,-0.437 0.261,-0.437C0.231,-0.437 0.206,-0.43 0.188,-0.417C0.169,-0.403 0.156,-0.384 0.151,-0.36L0.07,-0.384C0.083,-0.422 0.107,-0.452 0.142,-0.473C0.176,-0.494 0.215,-0.504 0.26,-0.504C0.329,-0.504 0.379,-0.488 0.41,-0.456C0.441,-0.424 0.456,-0.373 0.457,-0.303L0.458,-0.187C0.459,-0.145 0.46,-0.109 0.464,-0.08C0.467,-0.05 0.47,-0.023 0.475,-0L0.398,-0L0.378,-0.068C0.363,-0.043 0.342,-0.023 0.315,-0.009C0.288,0.005 0.253,0.012 0.209,0.012C0.186,0.012 0.164,0.009 0.143,0.003C0.122,-0.004 0.104,-0.013 0.089,-0.026C0.073,-0.038 0.061,-0.053 0.052,-0.071C0.043,-0.088 0.038,-0.108 0.038,-0.131C0.038,-0.16 0.046,-0.185 0.062,-0.205C0.078,-0.225 0.1,-0.242 0.13,-0.255C0.159,-0.268 0.194,-0.278 0.235,-0.286C0.276,-0.293 0.322,-0.3 0.373,-0.306ZM0.131,-0.133C0.131,-0.11 0.139,-0.091 0.157,-0.077C0.173,-0.062 0.197,-0.055 0.227,-0.055C0.246,-0.055 0.265,-0.057 0.284,-0.063C0.302,-0.068 0.318,-0.076 0.333,-0.088C0.347,-0.099 0.358,-0.115 0.367,-0.135C0.376,-0.154 0.38,-0.179 0.38,-0.208L0.38,-0.239C0.342,-0.235 0.308,-0.231 0.277,-0.226C0.246,-0.221 0.22,-0.214 0.199,-0.206C0.177,-0.198 0.16,-0.188 0.149,-0.177C0.137,-0.165 0.131,-0.15 0.131,-0.133Z" style="fill-rule:nonzero;"/>
                    </g>
                    <g transform="matrix(12,0,0,12,354.282,168.515)">
                        <path d="M0.132,-0.496L0.154,-0.421C0.168,-0.444 0.188,-0.464 0.213,-0.48C0.238,-0.496 0.272,-0.504 0.314,-0.504C0.344,-0.504 0.37,-0.499 0.391,-0.49C0.411,-0.481 0.428,-0.468 0.442,-0.451C0.455,-0.434 0.464,-0.414 0.47,-0.391C0.475,-0.368 0.478,-0.342 0.478,-0.314L0.478,-0L0.394,-0L0.394,-0.289C0.394,-0.308 0.393,-0.327 0.391,-0.344C0.388,-0.361 0.383,-0.376 0.376,-0.389C0.368,-0.402 0.357,-0.413 0.343,-0.421C0.328,-0.428 0.309,-0.432 0.285,-0.432C0.244,-0.432 0.212,-0.418 0.189,-0.391C0.166,-0.363 0.154,-0.322 0.154,-0.269L0.154,-0L0.07,-0L0.07,-0.496L0.132,-0.496Z" style="fill-rule:nonzero;"/>
                    </g>
                    <g transform="matrix(12,0,0,12,360.702,168.515)">
                        <path d="M0.279,-0.504C0.318,-0.504 0.353,-0.496 0.383,-0.481C0.413,-0.465 0.438,-0.444 0.458,-0.418C0.477,-0.392 0.492,-0.362 0.501,-0.329C0.51,-0.295 0.513,-0.26 0.51,-0.225L0.128,-0.225C0.129,-0.194 0.135,-0.167 0.146,-0.147C0.156,-0.126 0.169,-0.109 0.184,-0.097C0.199,-0.084 0.215,-0.075 0.232,-0.07C0.249,-0.065 0.266,-0.062 0.281,-0.062C0.309,-0.062 0.333,-0.066 0.352,-0.075C0.371,-0.084 0.386,-0.096 0.397,-0.111L0.478,-0.087C0.46,-0.058 0.434,-0.034 0.401,-0.016C0.368,0.003 0.328,0.012 0.281,0.012C0.242,0.012 0.208,0.005 0.178,-0.008C0.147,-0.021 0.122,-0.04 0.101,-0.063C0.08,-0.086 0.065,-0.114 0.054,-0.145C0.043,-0.176 0.038,-0.21 0.038,-0.247C0.038,-0.286 0.044,-0.322 0.057,-0.354C0.069,-0.385 0.086,-0.412 0.108,-0.435C0.129,-0.457 0.155,-0.474 0.184,-0.486C0.213,-0.498 0.245,-0.504 0.279,-0.504ZM0.421,-0.292C0.421,-0.309 0.418,-0.327 0.411,-0.344C0.404,-0.361 0.395,-0.376 0.383,-0.389C0.37,-0.402 0.355,-0.412 0.338,-0.42C0.321,-0.428 0.301,-0.432 0.279,-0.432C0.26,-0.432 0.242,-0.429 0.225,-0.424C0.208,-0.419 0.192,-0.411 0.179,-0.4C0.166,-0.389 0.155,-0.374 0.146,-0.357C0.136,-0.339 0.131,-0.317 0.129,-0.292L0.421,-0.292Z" style="fill-rule:nonzero;"/>
                    </g>
                </g>
            </g>
        </g>
    </g>
</svg>
