<?xml version="1.0" encoding="UTF-8" standalone="no"?>
<!DOCTYPE svg PUBLIC "-//W3C//DTD SVG 1.1//EN" "http://www.w3.org/Graphics/SVG/1.1/DTD/svg11.dtd">
<svg width="100%" height="100%" viewBox="0 0 85 85" version="1.1" xmlns="http://www.w3.org/2000/svg" xmlns:xlink="http://www.w3.org/1999/xlink" xml:space="preserve" xmlns:serif="http://www.serif.com/" style="fill-rule:evenodd;clip-rule:evenodd;stroke-linejoin:round;stroke-miterlimit:2;">
    <g id="Artboard2" transform="matrix(0.424373,0,0,1.11422,165.441,-100.217)">
        <rect x="-389.848" y="89.944" width="200.295" height="76.287" style="fill:none;"/>
        <g transform="matrix(3.28392,0,0,1.25075,-1252.97,-69.0199)">
            <g>
                <g transform="matrix(2.7481,0,0,2.7481,-412.195,-246.982)">
                    <g transform="matrix(12,0,0,12,249.829,144.921)">
                        <path d="M0.076,-0L0.076,-0.668L0.232,-0.668L0.41,-0.122L0.588,-0.668L0.744,-0.668L0.744,-0L0.65,-0L0.65,-0.57L0.457,-0L0.364,-0L0.17,-0.57L0.17,-0L0.076,-0Z" style="fill-rule:nonzero;"/>
                    </g>
                </g>
                <g transform="matrix(6.22791e-17,-1.0171,1.0171,6.22791e-17,134.928,424.298)">
                    <g transform="matrix(12,0,0,12,268.769,171.922)">
                        <path d="M0.01,-0.668L0.548,-0.668L0.548,-0.587L0.326,-0.587L0.326,-0L0.232,-0L0.232,-0.587L0.01,-0.587L0.01,-0.668Z" style="fill-rule:nonzero;"/>
                    </g>
                    <g transform="matrix(12,0,0,12,275.465,171.922)">
                        <path d="M0.076,-0L0.076,-0.668L0.17,-0.668L0.17,-0.384L0.52,-0.384L0.52,-0.668L0.614,-0.668L0.614,-0L0.52,-0L0.52,-0.303L0.17,-0.303L0.17,-0L0.076,-0Z" style="fill-rule:nonzero;"/>
                    </g>
                    <g transform="matrix(12,0,0,12,283.745,171.922)">
                        <path d="M0.076,-0L0.076,-0.668L0.529,-0.668L0.529,-0.587L0.17,-0.587L0.17,-0.384L0.435,-0.384L0.435,-0.303L0.17,-0.303L0.17,-0.081L0.529,-0.081L0.529,-0L0.076,-0Z" style="fill-rule:nonzero;"/>
                    </g>
                </g>
                <g transform="matrix(4.10716,0,0,4.10716,-1035.05,-506.182)">
                    <g transform="matrix(12,0,0,12,318.51,168.515)">
                        <path d="M0.076,-0L0.076,-0.668L0.232,-0.668L0.41,-0.122L0.588,-0.668L0.744,-0.668L0.744,-0L0.65,-0L0.65,-0.57L0.457,-0L0.364,-0L0.17,-0.57L0.17,-0L0.076,-0Z" style="fill-rule:nonzero;"/>
                    </g>
                </g>
            </g>
        </g>
    </g>
</svg>
