<?xml version="1.0" standalone="no"?>
<!DOCTYPE svg PUBLIC "-//W3C//DTD SVG 20010904//EN"
 "http://www.w3.org/TR/2001/REC-SVG-20010904/DTD/svg10.dtd">
<svg version="1.0" xmlns="http://www.w3.org/2000/svg"
 width="700.000000pt" height="700.000000pt" viewBox="0 0 700.000000 700.000000"
 preserveAspectRatio="xMidYMid meet">
<metadata>
Created by potrace 1.14, written by Peter Selinger 2001-2017
</metadata>
<g transform="translate(0.000000,700.000000) scale(0.100000,-0.100000)"
fill="#000000" stroke="none">
<path d="M1619 6749 c-5 -3 -8 -518 -7 -1265 l3 -1259 175 0 175 0 2 1050 c0
578 2 1061 2 1075 1 14 37 -81 80 -210 44 -129 143 -422 221 -650 132 -389
229 -673 365 -1075 32 -93 61 -175 66 -180 6 -8 283 -13 345 -6 6 0 16 18 22
39 6 20 63 190 126 377 64 187 148 432 186 545 272 809 400 1182 401 1169 0
-8 1 -491 2 -1074 l2 -1060 178 0 177 0 -2 1264 -3 1265 -280 1 c-294 0 -315
-1 -315 -18 0 -9 -210 -660 -275 -852 -13 -38 -72 -218 -130 -400 -59 -181
-142 -435 -184 -564 l-76 -233 -99 303 c-55 167 -124 378 -153 469 -30 91 -85
260 -123 375 -221 677 -290 892 -290 903 0 7 -6 12 -12 13 -56 4 -572 3 -579
-2z"/>
<path d="M4461 6750 c-4 -3 -8 -146 -8 -317 l0 -313 51 -1 c63 0 844 0 869 0
16 1 17 23 17 319 l0 318 -49 -2 c-28 -1 -53 -4 -58 -7 -5 -3 -8 -116 -8 -251
l1 -246 -156 2 -155 3 0 183 0 182 -57 0 -58 0 0 -185 0 -185 -142 0 -143 0 2
250 c1 182 -2 250 -10 251 -52 4 -89 4 -96 -1z"/>
<path d="M4456 5900 c-2 -3 -3 -32 -2 -65 l1 -60 198 0 197 0 0 -246 0 -245
-197 0 -198 1 -1 -67 0 -67 465 2 466 2 3 65 3 65 -211 -1 c-115 0 -211 2
-211 5 -3 14 -5 467 -2 476 2 6 81 10 213 10 l210 -1 0 66 0 65 -466 1 c-256
0 -467 -3 -468 -6z"/>
<path d="M4457 5023 c-2 -5 -4 -173 -4 -375 l0 -366 37 -4 c78 -7 77 -10 77
147 1 77 2 146 2 153 1 9 90 12 411 12 l410 0 0 65 0 65 -410 0 -410 0 -1 23
c0 12 -1 82 -1 155 l0 132 -53 0 c-30 0 -56 -3 -58 -7z"/>
<path d="M1614 4021 c-2 -2 -4 -853 -4 -1890 l0 -1886 260 0 c142 1 262 4 266
8 4 4 7 727 7 1607 0 881 1 1600 2 1598 1 -2 14 -39 30 -83 45 -133 283 -831
330 -970 24 -71 72 -211 105 -310 34 -99 99 -290 145 -425 46 -135 138 -405
204 -600 67 -195 156 -456 198 -580 41 -124 79 -229 83 -235 7 -8 424 -12 517
-6 7 1 16 16 22 34 5 17 89 266 186 552 155 456 255 753 420 1240 24 72 119
351 210 620 91 270 185 546 207 615 23 69 45 129 48 133 4 5 7 -712 6 -1592
l-1 -1601 25 -1 c14 0 133 -1 265 -2 l240 0 3 1889 2 1889 -439 0 c-242 0
-441 -2 -444 -5 -2 -3 -53 -153 -112 -335 -140 -431 -240 -738 -330 -1015 -41
-124 -108 -331 -150 -460 -42 -129 -91 -280 -110 -335 -18 -55 -49 -152 -70
-215 -72 -228 -227 -694 -232 -703 -3 -5 -25 48 -48 119 -63 191 -159 486
-285 874 -62 190 -127 390 -145 445 -18 55 -88 269 -155 475 -67 206 -158 483
-201 615 -43 132 -100 308 -127 390 l-48 150 -438 0 c-240 0 -439 -2 -442 -4z"/>
</g>
</svg>
